<?xml version="1.0" encoding="utf-8"?>
<!-- Generator: Adobe Illustrator 28.2.0, SVG Export Plug-In . SVG Version: 6.00 Build 0)  -->
<svg version="1.1" id="Capa_1" xmlns="http://www.w3.org/2000/svg" xmlns:xlink="http://www.w3.org/1999/xlink" x="0px" y="0px"
	 viewBox="0 0 885.2 230.4" style="enable-background:new 0 0 885.2 230.4;" xml:space="preserve">
<style type="text/css">
	.st0{fill:#3BB079;}
	.st1{fill:#8CD3AE;}
	.st2{opacity:0.51;fill:#8CD3AE;}
	.st3{opacity:0.51;}
	.st4{fill:#3BAF79;}
	.st5{fill:#FFFFFF;}
	.st6{opacity:0.51;fill:#FFFFFF;}
</style>
<g>
	<g>
		<path class="st5" d="M217,35.4L46.1,206.4c-5.2,5.2-14,1.5-14-5.8V29.6c0-4.5,3.7-8.2,8.2-8.2h170.9
			C218.5,21.4,222.2,30.2,217,35.4z"/>
		<path class="st5" d="M217,206.6l-71.7-71.7c-5.2-5.2-1.5-14,5.8-14h71.7c4.5,0,8.2,3.7,8.2,8.2v71.7
			C231,208.1,222.2,211.8,217,206.6z"/>
	</g>
	<g>
		<path class="st5" d="M348.2,109.8h39.7v25.2c0,19.1-9.8,27.4-29.3,27.4h-19.7c-19.6,0-29.4-8.3-29.4-27.4V95.5
			c0-18.9,9.8-27.1,29.4-27.1h19.7c19.5,0,29.3,8.2,29.3,27.1v4.8h-19.7v-3.9c0-7.6-3.4-10.6-11-10.6h-16.9c-7.6,0-11,3-11,10.6
			v38.1c0,7.6,3.4,10.6,11,10.6h17c7.8,0,11.2-3,11.2-10.6V126h-20.3V109.8z"/>
		<path class="st5" d="M397.1,93.3H414l1,7.8c3.4-6.1,9.7-9,18.9-9h10.8v16.7H424c-5.6,0-7.9,2-7.9,7.5v46h-19.1V93.3z"/>
		<rect x="451.5" y="68.4" class="st5" width="19.1" height="17.6"/>
		<rect x="451.5" y="93.3" class="st5" width="19.1" height="69"/>
		<path class="st5" d="M526.9,153.2c-3.3,6.3-9.7,9.1-19.1,9.1h-3.9c-15.9,0-24-6.9-24-22.6V113c0-15.6,8-22.5,24-22.5h3.9
			c8.3,0,14.2,2.2,17.7,7.1V68.4h19.1v92.5h-16.7L526.9,153.2z M525.6,114.8c0-5.4-2.3-7.5-7.8-7.5h-10.9c-5.4,0-7.9,2-7.9,7.5v23.3
			c0,5.3,2.4,7.5,7.9,7.5h10.9c5.4,0,7.8-2.2,7.8-7.5V114.8z"/>
		<path class="st5" d="M578.8,71h22.2l27.1,53.8L655.1,71h22.2v91.2h-19.7V99.7L635,145.3h-13.7l-22.7-45.7v62.6h-19.7V71z"/>
		<rect x="688.2" y="68.4" class="st5" width="19.1" height="17.6"/>
		<rect x="688.2" y="93.3" class="st5" width="19.1" height="69"/>
		<path class="st5" d="M718.2,93.3h16.9l0.8,7.8c3.3-6.3,9.7-9.1,19.1-9.1h2.9c15.9,0,24,6.8,24,22.5v47.9h-19.1v-46.1
			c0-5.4-2.3-7.5-7.9-7.5h-9.8c-5.4,0-7.8,2-7.8,7.5v46.1h-19.1V93.3z"/>
		<path class="st5" d="M809.1,140.1c0,5.6,2.6,7.7,8.3,7.7h8.4c5.7,0,8.3-2.1,8.3-7.3v-0.8h19.1c-0.1,15.5-8.7,22.6-25.6,22.6h-11.8
			c-17.1,0-25.7-7.2-25.7-23.6v-22.6c0-16.8,8.8-24.2,26.4-24.2h10.5c17.6,0,26.3,7.3,26.3,24.2v17h-44.1V140.1z M834.1,120v-5.5
			c0-5.9-2.6-8.1-8.6-8.1h-7.8c-6,0-8.7,2.3-8.7,8.1v5.5H834.1z"/>
	</g>
</g>
</svg>
